<?xml version="1.0" encoding="UTF-8"?>
<svg width="802px" height="123px" viewBox="0 0 802 123" version="1.1" xmlns="http://www.w3.org/2000/svg" xmlns:xlink="http://www.w3.org/1999/xlink">
    <title>logo</title>
    <defs>
        <linearGradient x1="76.2262818%" y1="7.08135517%" x2="23.6511094%" y2="92.9437998%" id="linearGradient-1">
            <stop stop-color="#00EAFF" offset="0%"></stop>
            <stop stop-color="#0080FF" offset="25.2530882%"></stop>
            <stop stop-color="#8000FF" offset="49.7394282%"></stop>
            <stop stop-color="#E619E6" offset="74.9912298%"></stop>
            <stop stop-color="#FF0000" offset="99.9136118%"></stop>
        </linearGradient>
    </defs>
    <g id="Page-1" stroke="none" stroke-width="1" fill="none" fill-rule="evenodd">
        <g id="og" transform="translate(-199.000000, -254.000000)" fill-rule="nonzero">
            <g id="logo" transform="translate(199.000000, 254.000000)">
                <path d="M132.068859,68.6014083 C132.068859,69.2311815 131.923717,69.8298612 131.648461,70.3494108 L103.325873,119.623 C102.124712,121.712695 99.904875,123 97.5025526,123 L34.5663065,123 C32.1639841,123 29.9441466,121.712695 28.7429856,119.623 L0.417752629,70.3447149 C0.143299859,69.8260293 0,69.2302284 0,68.6014083 C0,66.5619684 1.64599592,64.9086762 3.67643495,64.9086762 L34.7516438,64.9086762 L42.6269069,78.3446421 L42.6753128,78.4249236 C43.7262351,80.1197751 45.93744,80.6721663 47.6602522,79.6534092 L47.6602522,79.6534092 L47.7494098,79.5989634 C48.5437613,79.0982481 49.1188279,78.3105117 49.3543517,77.3959986 L49.3543517,77.3959986 L59.3891317,38.4315012 L68.0055241,101.162088 L68.0185794,101.249541 C68.336838,103.222959 70.167681,104.590177 72.1499175,104.315488 L72.1499175,104.315488 L72.2399621,104.301874 C73.6751463,104.066694 74.8411318,103.001819 75.2067389,101.582207 L75.2067389,101.582207 L87.3023233,54.616179 L92.268665,63.0893889 L92.3179753,63.1710903 C92.9882205,64.2499851 94.1662762,64.9086762 95.4368333,64.9086762 L95.4368333,64.9086762 L128.392424,64.9086762 L128.392424,64.9086762 C130.422863,64.9086762 132.068859,66.5619684 132.068859,68.6014083 Z M97.5025526,0 C99.904875,0 102.124712,1.2873049 103.325873,3.37699965 L131.650229,52.6528308 C131.924141,53.1718368 132.068859,53.7701814 132.068859,54.3985917 C132.068859,56.4380316 130.422863,58.0913238 128.392424,58.0913238 L97.2154061,58.0913238 L89.3401431,44.6553579 L89.2859375,44.5658052 C88.7874319,43.7679321 88.0031719,43.1903166 87.0926952,42.9537489 L87.0926952,42.9537489 L87.0072076,42.9326088 C85.0691373,42.4775535 83.1138285,43.6581687 82.6126983,45.6040017 L82.6126983,45.6040017 L72.5776354,84.5682147 L63.9615258,21.8379119 L63.947972,21.7474679 C63.7138295,20.3059216 62.6536539,19.1347677 61.2403076,18.7675399 C59.2745737,18.2567862 57.2688109,19.4433447 56.760311,21.4177926 L56.760311,21.4177926 L44.6644436,68.3835372 L39.698385,59.9106114 L39.649075,59.82891 C38.9788294,58.7500152 37.8007737,58.0913238 36.5302166,58.0913238 L36.5302166,58.0913238 L3.67643495,58.0913238 L3.67643495,58.0913238 C1.64599592,58.0913238 0,56.4380316 0,54.3985917 C0,53.7749988 0.139452399,53.1852171 0.408848577,52.6696845 L28.7429856,3.37699965 C29.9441466,1.2873049 32.1639841,0 34.5663065,0 L97.5025526,0 Z" id="PLS" fill="url(#linearGradient-1)"></path>
                <g id="PLSburn" transform="translate(145.613770, 16.534091)" fill="#FFFFFF">
                    <path d="M0,88.4659091 L0,1.19318182 L36.0338246,1.19318182 C42.5852273,1.19318182 48.24019,2.46160334 52.9987127,4.99844638 C57.7572354,7.53528942 61.4262251,11.0736639 64.0056818,15.6135698 C66.5851385,20.1534757 67.8748668,25.4148171 67.8748668,31.3975941 C67.8748668,37.426092 66.5580611,42.6903187 63.9244496,47.1902743 C61.2908381,51.6902299 57.545055,55.1774458 52.6871005,57.6519221 C47.829146,60.1263983 42.0621005,61.3636364 35.3859641,61.3636364 L13.1589577,61.3636364 L13.1589577,44.76163 L31.5001332,44.76163 C34.6646396,44.76163 37.3207786,44.2076527 39.4685502,43.0996982 C41.6163219,41.9917436 43.2456277,40.4334606 44.3564675,38.4248491 C45.4673074,36.4162376 46.0227273,34.0738192 46.0227273,31.3975941 C46.0227273,28.6987305 45.4673074,26.3635254 44.3564675,24.3919789 C43.2456277,22.4204324 41.6135476,20.896329 39.4602273,19.8196689 C37.306907,18.7430087 34.6420011,18.2046786 31.4655096,18.2046786 L21.0677823,18.2046786 L21.0677823,88.4659091 L0,88.4659091 Z" id="Path"></path>
                    <polygon id="Path" points="74.2386052 88.4659091 74.2386052 1.19318182 95.3063875 1.19318182 95.3063875 71.3185813 131.647829 71.3185813 131.647829 88.4659091"></polygon>
                    <path d="M185.738726,27.3746005 C185.454635,24.2385032 184.193205,21.7954324 181.954435,20.045388 C179.715666,18.2953436 176.533736,17.4203214 172.408648,17.4203214 C169.681375,17.4203214 167.41009,17.7783203 165.594794,18.4943182 C163.779497,19.2103161 162.415861,20.1847701 161.503885,21.4176802 C160.591909,22.6505904 160.124601,24.0567294 160.101963,25.6360973 C160.056686,26.9429155 160.322355,28.0978116 160.898971,29.1007857 C161.475587,30.1037598 162.326417,30.9816673 163.451461,31.7345082 C164.576505,32.4873491 165.934482,33.1493031 167.525391,33.7203702 C169.1163,34.2914373 170.903188,34.7900391 172.886054,35.2161754 L180.386054,36.9207209 C184.704235,37.8582209 188.518156,39.1024503 191.827815,40.6534091 C195.137474,42.2043679 197.92445,44.0637207 200.188744,46.2314675 C202.453037,48.3992143 204.16757,50.8893377 205.332343,53.7018377 C206.497115,56.5143377 207.090821,59.6590909 207.11346,63.1360973 C207.090821,68.6705433 205.697333,73.4093129 202.932995,77.3524059 C200.168657,81.2954989 196.208364,84.3210671 191.052114,86.4291104 C185.895864,88.5371538 179.692916,89.5911754 172.443271,89.5911754 C165.124823,89.5911754 158.753974,88.4916548 153.330722,86.2926136 C147.907471,84.0935724 143.691607,80.7639382 140.683128,76.3037109 C137.67465,71.8434837 136.124912,66.2158203 136.033914,59.4207209 L156.215466,59.4207209 C156.38592,62.2159091 157.143089,64.5553311 158.486972,66.438987 C159.830856,68.3226429 161.671787,69.7430975 164.009766,70.7003507 C166.347746,71.6576039 169.067916,72.1362305 172.170278,72.1362305 C174.999646,72.1362305 177.417193,71.7541504 179.422919,70.9899902 C181.428645,70.2258301 182.971281,69.1633745 184.050826,67.8026234 C185.130372,66.4418723 185.681686,64.8750444 185.704768,63.1021396 C185.681686,61.4544123 185.172985,60.045388 184.178667,58.8750666 C183.184349,57.7047452 181.661688,56.6820179 179.610685,55.8068848 C177.559682,54.9317516 174.93173,54.1248668 171.72683,53.3862305 L162.624823,51.2728604 C155.079546,49.5399059 149.130727,46.7359508 144.778365,42.8609952 C140.426004,38.9860396 138.261142,33.7331321 138.283781,27.1022727 C138.261142,21.6930043 139.714334,16.9585627 142.643356,12.898948 C145.572377,8.83933327 149.617787,5.67460494 154.779586,3.40476296 C159.941385,1.13492099 165.840599,0 172.477229,0 C179.238593,0 185.113504,1.14346591 190.101963,3.43039773 C195.090422,5.71732955 198.96116,8.91756925 201.714179,13.0311168 C204.467197,17.1446644 205.86923,21.9258256 205.920278,27.3746005 L185.738726,27.3746005 Z" id="Path"></path>
                    <path d="M216.818097,88.4659091 L216.818097,1.19318182 L237.647509,1.19318182 L237.647509,34.2274059 L238.090291,34.2274059 C238.919925,32.2272283 240.12598,30.3052868 241.708455,28.4615811 C243.29093,26.6178755 245.307976,25.1065341 247.759592,23.9275568 C250.211207,22.7485795 253.15865,22.1590909 256.601921,22.1590909 C261.158917,22.1590909 265.420391,23.355158 269.386345,25.7472923 C273.352298,28.1394265 276.553981,31.8184038 278.991392,36.7842241 C281.428803,41.7500444 282.647509,48.0795011 282.647509,55.7725941 C282.647509,63.2046786 281.474191,69.4163929 279.127556,74.407737 C276.780921,79.3990811 273.627511,83.1490811 269.667329,85.657737 C265.707146,88.1663929 261.31783,89.4207209 256.499382,89.4207209 C253.203927,89.4207209 250.343154,88.8766202 247.917062,87.7884189 C245.49097,86.7002175 243.465491,85.2768777 241.840624,83.5183993 C240.215757,81.759921 238.965646,79.8750444 238.090291,77.8637695 L237.443097,77.8637695 L237.443097,88.4659091 L216.818097,88.4659091 Z M237.204061,55.7386364 C237.204061,59.2729048 237.684241,62.3425293 238.644601,64.9475098 C239.604962,67.5524902 240.982803,69.57231 242.778124,71.0069691 C244.573445,72.4416282 246.738196,73.1589577 249.272376,73.1589577 C251.840735,73.1589577 254.015584,72.4416282 255.796923,71.0069691 C257.578262,69.57231 258.936238,67.5496049 259.870853,64.9388539 C260.805468,62.3281028 261.272775,59.2613636 261.272775,55.7386364 C261.272775,52.2274503 260.808242,49.1749157 259.879176,46.5810325 C258.95011,43.9871493 257.594908,41.9785378 255.813569,40.555198 C254.03223,39.1318581 251.851832,38.4201882 249.272376,38.4201882 C246.727099,38.4201882 244.556688,39.1205389 242.761145,40.5212402 C240.965602,41.9219416 239.590535,43.9163485 238.635945,46.5044611 C237.681356,49.0925737 237.204061,52.1706321 237.204061,55.7386364 Z" id="Shape"></path>
                    <path d="M330.829025,60.2044123 L330.829025,23.0113636 L351.658438,23.0113636 L351.658438,88.4659091 L331.783837,88.4659091 L331.783837,76.2957209 L331.102019,76.2957209 C329.658926,80.3014027 327.192995,83.4732333 323.704225,85.8112127 C320.215455,88.1491921 316.02234,89.3181818 311.124879,89.3181818 C306.64734,89.3181818 302.721115,88.2968972 299.346204,86.2543279 C295.971293,84.2117587 293.346337,81.3481001 291.471337,77.6633523 C289.596337,73.9786044 288.647518,69.6704102 288.624879,64.7387695 L288.624879,23.0113636 L309.454292,23.0113636 L309.454292,60.6478604 C309.47693,64.1932262 310.410102,66.9886364 312.253808,69.0340909 C314.097513,71.0795455 316.618931,72.1022727 319.818061,72.1022727 C321.886154,72.1022727 323.754052,71.6391824 325.421754,70.7130016 C327.089457,69.7868208 328.413365,68.4402743 329.393478,66.673362 C330.373592,64.9064498 330.852108,62.7501332 330.829025,60.2044123 Z" id="Path"></path>
                    <path d="M357.886143,88.4659091 L357.886143,23.0113636 L378.101653,23.0113636 L378.101653,34.9431818 L378.783471,34.9431818 C379.976653,30.6134588 381.925561,27.3946866 384.630195,25.2868652 C387.334829,23.1790439 390.476919,22.1251332 394.056464,22.1251332 C395.022374,22.1251332 396.019466,22.1904963 397.047742,22.3212225 C398.076018,22.4519487 399.022063,22.6364968 399.885877,22.8748668 L399.885877,40.9770064 C398.885788,40.6418679 397.583187,40.3763095 395.978073,40.1803311 C394.372959,39.9843528 392.948288,39.8863636 391.704059,39.8863636 C389.226697,39.8863636 387.00646,40.4332386 385.043347,41.5269886 C383.080235,42.6207386 381.534825,44.1433993 380.407117,46.0949707 C379.279409,48.0465421 378.715555,50.3178267 378.715555,52.9088246 L378.715555,88.4659091 L357.886143,88.4659091 Z" id="Path"></path>
                    <path d="M426.238193,51.1363636 L426.238193,88.4659091 L405.408781,88.4659091 L405.408781,23.0113636 L425.215466,23.0113636 L425.215466,35.0110973 L425.931242,35.0110973 C427.374335,31.0284979 429.845926,27.8908469 433.346015,25.5981445 C436.846103,23.3054421 441.01092,22.1590909 445.840466,22.1590909 C450.431197,22.1590909 454.428334,23.1860352 457.831877,25.2399237 C461.235419,27.2938121 463.877464,30.1631303 465.758013,33.8478782 C467.638562,37.5326261 468.567517,41.8295011 468.545282,46.7385032 L468.545282,88.4659091 L447.715466,88.4659091 L447.715466,50.8294123 C447.738104,47.2099165 446.817583,44.3732244 444.953903,42.3193359 C443.090222,40.2654474 440.510654,39.2385032 437.2152,39.2385032 C435.0277,39.2385032 433.108643,39.7129128 431.458031,40.6617321 C429.807418,41.6105513 428.530452,42.9714134 427.627131,44.7443182 C426.723811,46.517223 426.260832,48.6479048 426.238193,51.1363636 Z" id="Path"></path>
                </g>
                <g id=".com" transform="translate(620.817771, 59.795455)" fill="#FFFFFF">
                    <path d="M7.38659672,45.0226385 C5.3488363,45.0226385 3.60456251,44.3048651 2.15377534,42.8693182 C0.70298817,41.4337713 -0.0148592493,39.6894235 0.000233080289,37.6362749 C-0.0148592493,35.6286991 0.70298817,33.9109109 2.15377534,32.4829102 C3.60456251,31.0549094 5.3488363,30.3409091 7.38659672,30.3409091 C9.33380316,30.3409091 11.0478923,31.0549094 12.5288641,32.4829102 C14.0098359,33.9109109 14.757868,35.6286991 14.7729604,37.6362749 C14.757868,39.0037583 14.4046779,40.2462121 13.71339,41.3636364 C13.0221022,42.4810606 12.1224809,43.3702504 11.0145264,44.0312056 C9.90657186,44.6921609 8.69726196,45.0226385 7.38659672,45.0226385 Z" id="Path"></path>
                    <path d="M39.3640109,45.0226385 C34.7578911,45.0226385 30.8108771,44.0756688 27.5229687,42.1817294 C24.2350603,40.28779 21.7123478,37.6495176 19.9548312,34.2669123 C18.1973147,30.8843069 17.3185564,26.969549 17.3185564,22.5226385 C17.3185564,18.0606357 18.2020495,14.1373698 19.9690358,10.7528409 C21.7360221,7.36831203 24.2625076,4.73003965 27.5484925,2.83802379 C30.8344773,0.946007931 34.7654373,0 39.3413724,0 C43.3793104,0 46.8982646,0.731090199 49.898235,2.1932706 C52.8982054,3.65545099 55.2447667,5.71607185 56.937919,8.37513317 C58.6310712,11.0341945 59.5230723,14.1515743 59.6139222,17.7272727 L46.6367382,17.7272727 C46.3677396,15.4962713 45.6148987,13.7453391 44.3782155,12.4744762 C43.1415322,11.2036133 41.530796,10.5681818 39.5460067,10.5681818 C37.9323111,10.5681818 36.5202905,11.0179924 35.3099449,11.9176136 C34.0995992,12.8172348 33.1582522,14.144916 32.4859037,15.900657 C31.8135552,17.656398 31.477381,19.8183002 31.477381,22.3863636 C31.477381,24.9698153 31.8117057,27.1440726 32.480355,28.9091353 C33.1490044,30.674198 34.088428,32.0094253 35.2986256,32.9148171 C36.5088233,33.8202089 37.924617,34.2729048 39.5460067,34.2729048 C40.8184972,34.2729048 41.9528633,33.9963601 42.949105,33.4432706 C43.9453468,32.8901811 44.7654373,32.0795603 45.4093767,31.011408 C46.0533161,29.9432558 46.4624366,28.6440578 46.6367382,27.1138139 L59.6139222,27.1138139 C59.4925917,30.7046046 58.6014784,33.8456587 56.9405823,36.5369762 C55.2796862,39.2282937 52.9596845,41.3154001 49.980577,42.7982955 C47.0014695,44.2811908 43.4626142,45.0226385 39.3640109,45.0226385 Z" id="Path"></path>
                    <path d="M87.1139638,45.0226385 C82.5383246,45.0226385 78.605589,44.0813654 75.3157571,42.1988192 C72.0259252,40.3162731 69.4955926,37.6856209 67.7247592,34.3068626 C65.9539259,30.9281043 65.0685092,27.0000296 65.0685092,22.5226385 C65.0685092,18.0378492 65.9539259,14.1041519 67.7247592,10.7215465 C69.4955926,7.33894117 72.0259252,4.70636541 75.3157571,2.82381925 C78.605589,0.941273082 82.5383246,0 87.1139638,0 C91.689603,0 95.6223385,0.941273082 98.9121704,2.82381925 C102.202002,4.70636541 104.732335,7.33894117 106.503168,10.7215465 C108.274002,14.1041519 109.159418,18.0378492 109.159418,22.5226385 C109.159418,27.0000296 108.274002,30.9281043 106.503168,34.3068626 C104.732335,37.6856209 102.202002,40.3162731 98.9121704,42.1988192 C95.6223385,44.0813654 91.689603,45.0226385 87.1139638,45.0226385 Z M87.2049616,34.5454545 C88.8639342,34.5454545 90.2729955,34.0360144 91.4321456,33.0171342 C92.5912957,31.998254 93.4758246,30.579723 94.0857322,28.7615412 C94.6956399,26.9433594 95.0005937,24.8333925 95.0005937,22.4316406 C95.0005937,20.0150923 94.6956399,17.8996508 94.0857322,16.0853161 C93.4758246,14.2709813 92.5912957,12.8523763 91.4321456,11.8295011 C90.2729955,10.8066258 88.8639342,10.2951882 87.2049616,10.2951882 C85.4853239,10.2951882 84.0307636,10.8066258 82.8412809,11.8295011 C81.6517982,12.8523763 80.752103,14.2709813 80.1421953,16.0853161 C79.5322876,17.8996508 79.2273338,20.0150923 79.2273338,22.4316406 C79.2273338,24.8333925 79.5322876,26.9433594 80.1421953,28.7615412 C80.752103,30.579723 81.6517982,31.998254 82.8412809,33.0171342 C84.0307636,34.0360144 85.4853239,34.5454545 87.2049616,34.5454545 Z" id="Shape"></path>
                    <path d="M115.295843,44.2045455 L115.295843,0.568181818 L128.5003,0.568181818 L128.5003,8.56800426 L128.977484,8.56800426 C129.886575,5.92033617 131.422589,3.83041844 133.585527,2.29825107 C135.748465,0.766083688 138.326146,0 141.31857,0 C144.348873,0 146.942608,0.777476918 149.099776,2.33243075 C151.256943,3.88738459 152.62524,5.96590909 153.204668,8.56800426 L153.659213,8.56800426 C154.473607,5.98100142 156.06644,3.90625 158.437711,2.34375 C160.808982,0.78125 163.602543,0 166.818393,0 C170.947181,0 174.301377,1.3190992 176.880981,3.95729759 C179.460586,6.59549598 180.750388,10.2157315 180.750388,14.8180043 L180.750388,44.2045455 L166.864114,44.2045455 L166.864114,17.9998224 C166.864114,15.8256392 166.301554,14.1646692 165.176436,13.0169123 C164.051318,11.8691554 162.598607,11.295277 160.818304,11.295277 C158.916966,11.295277 157.422678,11.9155421 156.335438,13.1560724 C155.248199,14.3966027 154.704579,16.0643052 154.704579,18.1591797 L154.704579,44.2045455 L141.341209,44.2045455 L141.341209,17.8635476 C141.341209,15.8370324 140.79389,14.2356919 139.699252,13.0595259 C138.604614,11.88336 137.151904,11.295277 135.34112,11.295277 C134.128999,11.295277 133.061734,11.5850645 132.139327,12.1646396 C131.216919,12.7442146 130.493449,13.5652669 129.968916,14.6277965 C129.444384,15.6903261 129.182118,16.9432114 129.182118,18.3864524 L129.182118,44.2045455 L115.295843,44.2045455 Z" id="Path"></path>
                </g>
            </g>
        </g>
    </g>
</svg>