<?xml version="1.0" standalone="no"?>
<!DOCTYPE svg PUBLIC "-//W3C//DTD SVG 20010904//EN"
 "http://www.w3.org/TR/2001/REC-SVG-20010904/DTD/svg10.dtd">
<svg version="1.0" xmlns="http://www.w3.org/2000/svg"
 width="1000.000000pt" height="1000.000000pt" viewBox="0 0 1000.000000 1000.000000"
 preserveAspectRatio="xMidYMid meet">
<metadata>
Created by potrace 1.14, written by Peter Selinger 2001-2017
</metadata>
<g transform="translate(0.000000,1000.000000) scale(0.100000,-0.100000)"
fill="#000000" stroke="none">
<path d="M0 5000 l0 -5000 5000 0 5000 0 0 5000 0 5000 -5000 0 -5000 0 0
-5000z m1941 1897 c-13 -13 -15 1 -4 30 7 17 8 17 11 -1 2 -10 -1 -23 -7 -29z
m-28 -24 c-3 -10 -17 -37 -30 -60 -14 -24 -23 -48 -20 -55 3 -8 9 -2 15 14 14
34 32 45 32 19 0 -11 -4 -22 -9 -25 -5 -3 -7 -15 -4 -27 5 -16 2 -20 -13 -17
-15 2 -19 -3 -20 -30 -1 -46 13 -49 33 -8 9 19 20 33 25 30 4 -3 6 -10 3 -15
-4 -5 27 -9 74 -9 l81 0 0 -40 0 -40 40 0 c22 0 40 -4 40 -10 0 -5 18 -10 40
-10 38 0 40 -2 40 -30 0 -28 2 -30 40 -30 36 0 40 -2 40 -25 0 -22 4 -25 40
-25 36 0 40 -2 40 -25 0 -22 4 -25 40 -25 36 0 40 -3 40 -24 0 -20 6 -24 36
-28 19 -2 38 0 41 5 3 5 9 3 13 -3 5 -8 15 -10 26 -5 18 7 18 8 -1 15 -17 7
-17 9 -2 9 9 1 17 6 17 11 0 16 27 11 34 -6 5 -12 14 -14 34 -10 l27 6 -25
-16 c-30 -19 -70 -73 -108 -146 -16 -29 -40 -71 -54 -93 -25 -40 -57 -96 -108
-190 -15 -27 -41 -73 -59 -101 -17 -28 -31 -55 -31 -60 0 -4 -11 -24 -23 -43
-13 -20 -47 -76 -76 -126 -28 -49 -56 -97 -61 -105 -5 -8 -37 -64 -71 -125
-34 -60 -74 -130 -89 -155 -24 -40 -231 -400 -290 -506 -12 -21 -77 -133 -145
-249 -67 -115 -137 -238 -156 -272 -36 -67 -43 -73 -53 -46 -4 9 -31 58 -60
107 -29 50 -97 168 -151 261 -54 94 -114 197 -133 230 -81 137 -100 182 -107
257 -4 47 -3 90 5 118 10 37 78 164 196 367 135 232 251 431 259 444 17 30
151 259 206 354 29 50 66 113 81 140 16 28 54 91 84 140 30 50 66 112 82 139
15 27 32 56 37 65 6 9 21 35 33 59 23 43 37 56 25 25z m842 -403 c-27 -12 -43
-12 -25 0 8 5 22 9 30 9 10 0 8 -3 -5 -9z m-175 -20 c0 -5 -4 -10 -10 -10 -5
0 -10 5 -10 10 0 6 5 10 10 10 6 0 10 -4 10 -10z m283 -17 c-13 -2 -35 -2 -50
0 -16 2 -5 4 22 4 28 0 40 -2 28 -4z m-108 -13 c-27 -12 -43 -12 -25 0 8 5 22
9 30 9 10 0 8 -3 -5 -9z m498 -422 c-63 -11 -70 -28 -13 -28 22 0 40 -4 40
-10 0 -5 18 -10 40 -10 29 0 40 -4 40 -15 0 -11 11 -15 40 -15 l40 0 0 -55 0
-55 40 0 c22 0 40 -4 40 -10 0 -5 18 -10 40 -10 36 0 40 -2 40 -25 0 -20 5
-25 24 -25 40 0 56 -11 56 -36 0 -21 4 -24 40 -24 29 0 40 -4 40 -15 0 -11 11
-15 40 -15 22 0 40 -4 40 -10 0 -5 18 -10 40 -10 36 0 40 -2 40 -25 0 -20 5
-25 24 -25 45 0 56 -10 56 -51 l0 -39 80 0 80 0 0 -40 0 -40 40 0 c36 0 40 -2
40 -25 0 -25 1 -25 80 -25 79 0 80 0 80 -25 0 -22 4 -25 40 -25 29 0 40 -4 40
-15 0 -11 11 -15 40 -15 l40 0 0 -55 0 -55 40 0 c22 0 40 -4 40 -10 0 -5 18
-10 40 -10 36 0 40 -2 40 -25 0 -20 5 -25 24 -25 40 0 56 -11 56 -36 0 -21 4
-24 40 -24 29 0 40 -4 40 -15 0 -11 11 -15 40 -15 29 0 40 -4 40 -15 0 -11 11
-15 40 -15 33 0 40 -3 40 -19 0 -16 8 -20 38 -23 36 -3 37 -4 40 -45 3 -43 3
-43 43 -43 28 0 39 -4 39 -15 0 -10 10 -15 30 -15 17 0 30 -5 30 -11 0 -5 5
-7 10 -4 6 3 10 -3 10 -14 0 -18 6 -21 40 -21 36 0 40 -2 40 -25 0 -22 4 -25
40 -25 36 0 40 -2 40 -25 0 -22 4 -25 40 -25 29 0 40 -4 40 -15 0 -12 16 -15
80 -15 l80 0 0 -55 0 -55 39 0 c25 0 47 -7 62 -21 13 -11 17 -17 9 -13 -10 5
-12 4 -5 -3 6 -6 33 -13 60 -17 29 -3 42 -2 30 3 -18 7 -18 9 8 26 15 10 30
15 33 12 7 -7 48 32 63 60 6 13 15 22 20 20 15 -4 211 177 211 196 0 4 7 7 15
7 8 0 15 5 15 10 0 6 6 10 13 10 7 0 84 69 170 153 169 164 178 179 136 228
-11 13 -30 37 -42 52 -12 16 -38 45 -57 64 -19 20 -34 39 -33 44 2 5 -4 9 -12
9 -8 0 -15 3 -15 8 0 4 -18 27 -40 52 -46 52 -49 83 -10 112 27 20 132 48 393
104 39 8 92 20 117 26 25 6 63 13 85 16 22 2 45 8 50 13 6 4 31 11 55 14 25 4
72 13 105 20 33 8 89 21 125 29 173 40 291 29 306 -30 10 -39 -32 -278 -121
-694 -9 -41 -20 -97 -25 -125 -12 -66 -36 -176 -55 -250 -9 -33 -20 -75 -24
-93 -13 -48 -29 -62 -70 -62 -31 0 -47 9 -96 55 -33 30 -63 55 -67 55 -5 0 -8
4 -8 9 0 7 -46 55 -121 126 -25 24 -43 18 -95 -30 -26 -25 -53 -45 -59 -45
-15 0 -286 -266 -309 -303 -10 -16 -15 -35 -12 -42 3 -8 -3 -17 -15 -20 -10
-4 -19 -11 -19 -17 0 -6 -3 -9 -6 -5 -8 7 -39 -22 -47 -45 -4 -10 -13 -18 -21
-18 -7 0 -17 -7 -20 -16 -3 -8 -2 -13 3 -10 5 3 9 0 8 -7 -2 -59 -1 -60 59
-54 48 5 55 4 52 -11 -2 -9 -11 -16 -21 -16 -10 1 -17 -5 -17 -17 0 -12 -7
-19 -20 -19 -13 0 -20 -7 -20 -20 0 -11 7 -20 15 -20 8 0 15 6 15 13 0 8 3 8
9 -2 7 -11 10 -7 13 14 2 21 10 31 28 35 20 5 25 12 23 34 -2 25 0 26 33 20
40 -7 41 -3 13 38 -12 16 -19 32 -16 34 3 3 14 -7 23 -23 10 -15 23 -31 28
-35 10 -7 65 26 78 46 7 12 177 180 222 220 39 35 61 35 51 -1 -5 -16 -8 -50
-8 -78 1 -817 5 -1255 11 -1255 4 0 21 23 37 52 17 29 42 73 57 98 15 25 31
52 35 60 23 45 117 196 125 201 5 3 10 10 10 15 0 5 14 36 31 69 22 40 33 53
35 41 2 -10 -2 -22 -10 -27 -9 -6 -3 -9 17 -9 21 0 26 3 16 9 -8 5 -11 16 -8
25 3 8 2 18 -3 21 -6 4 -9 21 -9 38 1 24 3 26 6 10 7 -38 23 -26 23 16 0 22 4
42 9 45 5 4 8 -2 6 -11 -11 -56 -13 -123 -4 -117 6 3 10 -2 9 -12 -5 -48 -1
-54 40 -54 22 0 40 -4 40 -10 0 -5 18 -10 40 -10 38 0 40 -2 40 -30 0 -28 2
-30 40 -30 38 0 40 -2 40 -29 0 -22 4 -29 17 -27 16 3 25 -2 58 -31 7 -7 30
-13 49 -13 32 0 36 -3 36 -25 0 -20 5 -25 24 -25 40 0 56 -11 56 -36 0 -21 4
-24 40 -24 29 0 40 -4 40 -15 0 -11 13 -15 54 -15 l53 0 6 -37 c4 -21 2 -42
-5 -50 -6 -7 -8 -16 -5 -19 3 -3 13 8 21 24 9 17 21 32 28 34 7 3 12 21 12 41
0 20 3 32 6 26 4 -6 15 2 25 18 24 36 45 57 45 45 0 -5 -6 -15 -14 -21 -8 -7
-26 -36 -41 -66 -14 -30 -31 -55 -36 -55 -5 0 -9 -6 -9 -14 0 -7 -11 -29 -24
-49 -13 -19 -27 -46 -31 -58 -4 -13 -11 -26 -14 -29 -6 -4 -51 -82 -134 -230
-25 -45 -84 -145 -114 -192 -13 -21 -23 -40 -23 -42 0 -3 -20 -40 -45 -82 -25
-41 -45 -77 -45 -79 0 -2 -52 -92 -115 -200 -63 -108 -115 -199 -115 -201 0
-2 -11 -21 -23 -42 -30 -47 -155 -265 -182 -315 -33 -62 -97 -122 -181 -166
l-79 -43 -443 5 c-244 2 -445 7 -448 10 -9 9 137 256 150 254 8 -1 12 99 14
368 3 374 -1 459 -20 453 -18 -6 -195 -326 -202 -365 -3 -21 -6 -176 -6 -345
l0 -308 -29 -32 -28 -32 -1434 0 -1434 -1 -67 34 c-61 30 -158 107 -158 124 0
4 -35 67 -79 140 -100 169 -177 301 -261 452 -38 66 -104 183 -149 260 -48 84
-81 151 -81 168 0 15 8 45 18 65 17 33 201 352 417 722 106 182 106 181 158
272 76 134 14 123 692 125 319 1 589 2 601 2 12 1 60 39 115 94 52 50 107 103
123 116 34 28 80 42 105 33 19 -7 153 -125 202 -177 16 -16 32 -26 36 -22 4 5
1 12 -7 17 -8 6 -11 10 -7 10 4 0 -3 15 -16 33 -13 17 -43 66 -67 107 -70 123
-89 147 -136 169 -44 21 -51 21 -903 19 l-859 -3 -42 -30 c-35 -25 -65 -70
-174 -260 -72 -126 -160 -279 -196 -340 -35 -60 -80 -139 -100 -175 -21 -36
-77 -133 -125 -217 l-88 -152 -50 87 c-27 48 -58 101 -67 117 -9 17 -70 121
-133 232 -68 118 -119 218 -123 241 -9 54 5 83 164 352 67 114 94 162 159 275
22 39 64 111 93 160 29 50 66 115 83 145 16 30 38 66 47 80 10 14 85 142 167
285 82 143 156 271 164 285 40 64 119 201 119 206 0 2 8 17 19 32 10 15 38 61
61 102 24 41 69 119 102 173 32 54 58 102 58 106 0 10 72 78 90 84 8 2 89 5
180 5 136 0 156 -2 113 -10z m2694 -1434 c-3 -3 -12 -4 -19 -1 -8 3 -5 6 6 6
11 1 17 -2 13 -5z m530 -316 c-3 -8 -6 -5 -6 6 -1 11 2 17 5 13 3 -3 4 -12 1
-19z m68 2 c3 -5 1 -10 -4 -10 -6 0 -11 5 -11 10 0 6 2 10 4 10 3 0 8 -4 11
-10z m30 0 c3 -5 1 -10 -4 -10 -6 0 -11 5 -11 10 0 6 2 10 4 10 3 0 8 -4 11
-10z m10 -80 c3 -5 1 -10 -4 -10 -6 0 -11 5 -11 10 0 6 2 10 4 10 3 0 8 -4 11
-10z m605 -120 c0 -5 -2 -10 -4 -10 -3 0 -8 5 -11 10 -3 6 -1 10 4 10 6 0 11
-4 11 -10z m88 -175 c-3 -3 -9 2 -12 12 -6 14 -5 15 5 6 7 -7 10 -15 7 -18z
m45 -105 c3 -11 1 -18 -4 -14 -5 3 -9 12 -9 20 0 20 7 17 13 -6z m859 -382
c-7 -7 -12 -8 -12 -2 0 14 12 26 19 19 2 -3 -1 -11 -7 -17z m-42 -48 c0 -5 -4
-10 -10 -10 -5 0 -10 5 -10 10 0 6 5 10 10 10 6 0 10 -4 10 -10z"/>
<path d="M1841 6753 c-1 -6 -4 -20 -7 -30 -5 -17 -5 -17 6 0 6 10 9 23 6 30
-3 9 -5 9 -5 0z"/>
<path d="M1815 6691 c-3 -5 -1 -12 5 -16 5 -3 10 1 10 9 0 18 -6 21 -15 7z"/>
<path d="M2626 6391 c-3 -5 1 -11 9 -15 8 -3 15 -1 15 4 0 13 -18 22 -24 11z"/>
<path d="M2594 6343 c-3 -10 -10 -26 -15 -36 -6 -11 -8 -22 -5 -25 4 -3 12 8
18 25 7 18 21 36 32 42 21 9 20 10 -2 10 -13 1 -25 -6 -28 -16z"/>
<path d="M2561 6324 c0 -11 3 -14 6 -6 3 7 2 16 -1 19 -3 4 -6 -2 -5 -13z"/>
<path d="M2515 6229 c-11 -17 1 -21 15 -4 8 9 8 15 2 15 -6 0 -14 -5 -17 -11z"/>
<path d="M2487 6188 c-12 -46 21 -42 44 6 7 13 1 10 -15 -9 l-26 -30 6 28 c7
32 -1 37 -9 5z"/>
<path d="M2920 5949 c0 -5 5 -7 10 -4 6 3 10 8 10 11 0 2 -4 4 -10 4 -5 0 -10
-5 -10 -11z"/>
<path d="M5795 4430 c-3 -5 -2 -10 4 -10 5 0 13 5 16 10 3 6 2 10 -4 10 -5 0
-13 -4 -16 -10z"/>
<path d="M6362 4178 c-24 -24 -10 -98 19 -98 20 0 26 24 9 35 -5 3 -10 15 -10
26 0 10 -5 19 -12 19 -6 0 -3 7 8 15 10 8 14 15 9 15 -6 0 -16 -5 -23 -12z"/>
<path d="M6275 4090 c-3 -5 3 -10 15 -10 12 0 18 5 15 10 -3 6 -10 10 -15 10
-5 0 -12 -4 -15 -10z"/>
<path d="M6400 4023 c0 -21 3 -24 9 -14 5 8 7 20 4 28 -8 21 -13 15 -13 -14z"/>
<path d="M7266 3524 c-8 -22 -7 -34 3 -34 5 0 9 11 9 25 0 29 -3 31 -12 9z"/>
<path d="M7210 3450 c0 -5 5 -10 11 -10 5 0 7 5 4 10 -3 6 -8 10 -11 10 -2 0
-4 -4 -4 -10z"/>
<path d="M4630 3223 c0 -4 21 -44 47 -88 25 -44 64 -111 86 -150 22 -38 54
-94 71 -124 17 -29 45 -79 62 -110 24 -43 40 -59 65 -67 l34 -12 0 -386 c0
-252 3 -385 10 -383 5 2 51 75 101 163 51 87 98 166 106 174 10 11 14 73 16
261 l3 246 44 46 c44 45 53 62 36 69 -5 2 -32 44 -60 93 -28 50 -55 89 -59 87
-4 -1 -37 -32 -74 -67 -48 -47 -74 -65 -93 -65 -33 0 -95 28 -102 47 -3 7 -9
13 -13 13 -4 0 -55 46 -112 103 -129 126 -168 161 -168 150z"/>
<path d="M8000 3184 c0 -8 5 -12 10 -9 6 3 10 10 10 16 0 5 -4 9 -10 9 -5 0
-10 -7 -10 -16z"/>
</g>
</svg>
